<svg xmlns="http://www.w3.org/2000/svg" xmlns:xlink="http://www.w3.org/1999/xlink" width="500" zoomAndPan="magnify" viewBox="0 0 375 374.999991" height="500" preserveAspectRatio="xMidYMid meet" version="1.0"><defs><g/><clipPath id="48c72150f5"><path d="M 151.832031 110.246094 L 223 110.246094 L 223 202.496094 L 151.832031 202.496094 Z M 151.832031 110.246094 " clip-rule="nonzero"/></clipPath></defs><path fill="#ff914d" d="M 189.417969 198.246094 C 189.667969 194.792969 189.046875 191.265625 188.996094 187.8125 C 188.933594 183.402344 188.214844 179.03125 188.1875 174.617188 C 187.707031 174.601562 187.226562 174.582031 186.753906 174.582031 C 186.226562 174.582031 185.699219 174.582031 185.171875 174.574219 C 185.15625 174.613281 185.140625 174.65625 185.132812 174.699219 C 185.117188 174.746094 185.101562 174.796875 185.082031 174.847656 C 185.128906 174.996094 185.144531 175.148438 185.132812 175.308594 C 184.960938 177.351562 185.550781 179.429688 185.550781 181.488281 C 185.550781 183.644531 185.5625 185.804688 185.550781 187.96875 C 185.527344 191.914062 185.355469 195.859375 185.039062 199.796875 C 185.578125 199.796875 186.109375 199.796875 186.644531 199.78125 C 187.277344 199.769531 187.90625 199.722656 188.53125 199.632812 C 188.71875 199.609375 188.902344 199.570312 189.078125 199.515625 C 189.140625 199.496094 189.199219 199.472656 189.257812 199.445312 C 189.386719 199.300781 189.539062 199.199219 189.71875 199.132812 C 189.488281 198.882812 189.390625 198.585938 189.417969 198.246094 Z M 189.417969 198.246094 " fill-opacity="1" fill-rule="nonzero"/><path fill="#10b5b8" d="M 168.476562 123.636719 C 167.640625 123.664062 166.957031 123.894531 166.453125 124.617188 C 166.105469 125.113281 165.96875 125.664062 166.039062 126.265625 C 166.367188 126.382812 166.566406 126.617188 166.628906 126.964844 C 167.222656 129.421875 171.433594 128.140625 171.636719 126.003906 C 171.78125 124.460938 169.742188 123.597656 168.476562 123.636719 Z M 168.476562 123.636719 " fill-opacity="1" fill-rule="nonzero"/><path fill="#ff914d" d="M 181.761719 174.402344 C 180.90625 174.476562 179.894531 174.667969 178.984375 174.53125 C 178.949219 174.628906 178.914062 174.730469 178.886719 174.828125 C 178.761719 175.277344 178.65625 175.730469 178.554688 176.1875 C 178.402344 176.945312 178.207031 177.6875 177.964844 178.421875 C 177.023438 181.078125 176.183594 183.78125 175.085938 186.382812 C 174.027344 188.890625 172.960938 191.371094 171.777344 193.824219 C 170.835938 195.777344 169.90625 197.738281 169.089844 199.75 C 171.210938 199.71875 173.351562 199.6875 175.441406 200.023438 C 177.089844 195.390625 178.234375 190.613281 179.8125 185.960938 C 181.089844 182.183594 181.308594 178.109375 182.792969 174.40625 C 182.449219 174.375 182.109375 174.375 181.761719 174.402344 Z M 181.761719 174.402344 " fill-opacity="1" fill-rule="nonzero"/><path fill="#10b5b8" d="M 181.183594 119.707031 C 179.257812 115.535156 174.539062 112.773438 170.015625 112.675781 C 165.351562 112.570312 161.691406 115.316406 159.148438 119.070312 C 157.558594 121.441406 156.363281 124.285156 156.0625 127.128906 C 155.796875 129.660156 156.277344 132.035156 157.503906 134.261719 C 157.605469 134.378906 157.679688 134.515625 157.726562 134.667969 C 157.878906 134.929688 158.039062 135.191406 158.210938 135.445312 C 158.351562 135.640625 158.417969 135.859375 158.414062 136.097656 C 159.3125 137.460938 160.761719 138.460938 162.203125 139.167969 C 164.125 140.117188 166.363281 140.875 168.53125 140.851562 C 173.679688 140.789062 178.515625 137.546875 180.71875 132.878906 C 182.578125 128.9375 183.046875 123.734375 181.183594 119.707031 Z M 165.152344 129.089844 C 165.117188 129.054688 165.082031 129.023438 165.046875 128.984375 C 162.75 126.453125 163.960938 122.179688 167.414062 121.503906 C 169.953125 121.011719 173.5625 122.492188 173.835938 125.398438 C 174.246094 129.746094 167.484375 132.292969 165.152344 129.089844 Z M 165.152344 129.089844 " fill-opacity="1" fill-rule="nonzero"/><path fill="#10b5b8" d="M 199.265625 123.636719 C 198.429688 123.664062 197.746094 123.894531 197.242188 124.617188 C 196.894531 125.113281 196.757812 125.664062 196.828125 126.265625 C 197.15625 126.382812 197.355469 126.617188 197.417969 126.964844 C 198.015625 129.421875 202.238281 128.144531 202.4375 126.003906 C 202.574219 124.460938 200.535156 123.597656 199.265625 123.636719 Z M 199.265625 123.636719 " fill-opacity="1" fill-rule="nonzero"/><path fill="#10b5b8" d="M 211.980469 119.707031 C 210.050781 115.535156 205.339844 112.773438 200.808594 112.675781 C 196.148438 112.570312 192.484375 115.316406 189.945312 119.070312 C 188.347656 121.441406 187.15625 124.285156 186.855469 127.128906 C 186.589844 129.660156 187.066406 132.035156 188.289062 134.261719 C 188.390625 134.378906 188.46875 134.515625 188.511719 134.667969 C 188.664062 134.933594 188.828125 135.191406 189 135.449219 C 189.140625 135.644531 189.207031 135.859375 189.199219 136.101562 C 190.101562 137.460938 191.550781 138.460938 192.992188 139.171875 C 194.914062 140.121094 197.152344 140.878906 199.320312 140.851562 C 204.46875 140.792969 209.304688 137.546875 211.507812 132.878906 C 213.371094 128.9375 213.839844 123.734375 211.980469 119.707031 Z M 195.945312 129.089844 C 195.910156 129.058594 195.875 129.023438 195.84375 128.984375 C 193.542969 126.453125 194.757812 122.179688 198.207031 121.503906 C 200.75 121.011719 204.355469 122.492188 204.628906 125.398438 C 205.039062 129.746094 198.277344 132.292969 195.945312 129.089844 Z M 195.945312 129.089844 " fill-opacity="1" fill-rule="nonzero"/><path fill="#10b5b8" d="M 156.265625 151.402344 L 156.230469 151.402344 C 155.980469 151.425781 155.753906 151.367188 155.546875 151.226562 L 155.421875 151.226562 C 155.140625 151.238281 154.863281 151.261719 154.585938 151.289062 L 154.199219 151.328125 C 154.109375 152.078125 154.230469 152.832031 154.324219 153.585938 C 155.023438 153.546875 155.773438 153.535156 156.40625 153.730469 C 156.378906 152.960938 156.347656 152.179688 156.265625 151.402344 Z M 156.265625 151.402344 " fill-opacity="1" fill-rule="nonzero"/><path fill="#10b5b8" d="M 207.808594 140.402344 C 204.417969 142.679688 200.253906 143.652344 196.222656 142.6875 C 194.820312 142.355469 193.464844 141.878906 192.160156 141.265625 C 191.960938 141.542969 191.691406 141.671875 191.351562 141.65625 L 191.191406 141.65625 C 185.886719 141.65625 180.503906 141.382812 175.222656 142.0625 C 174.914062 142.109375 174.644531 142.03125 174.414062 141.824219 C 173 142.449219 171.527344 142.835938 169.992188 142.984375 C 168.457031 143.128906 166.933594 143.03125 165.429688 142.683594 C 163.785156 142.300781 162.210938 141.714844 160.710938 140.933594 C 160.226562 141.339844 159.410156 141.375 159.042969 140.746094 C 158.953125 140.773438 158.867188 140.804688 158.78125 140.839844 C 158.640625 140.898438 158.511719 140.976562 158.394531 141.074219 C 157.914062 141.507812 157.480469 141.949219 157.347656 142.613281 C 157.074219 143.921875 157.398438 145.136719 157.679688 146.410156 C 157.992188 147.808594 158.230469 149.222656 158.390625 150.648438 C 158.71875 153.664062 158.75 156.683594 158.480469 159.707031 C 158.277344 161.925781 157.605469 165.015625 160.253906 165.9375 C 162.429688 166.691406 164.902344 166.09375 167.113281 165.882812 C 173.511719 165.273438 179.820312 166.410156 186.199219 166.640625 C 189.496094 166.757812 192.828125 166.660156 196.121094 166.539062 C 199.0625 166.425781 202.1875 166.671875 205.015625 165.726562 C 205.847656 165.207031 206.652344 164.550781 206.835938 163.527344 C 207.027344 162.464844 206.808594 161.378906 206.59375 160.332031 C 206.523438 160.078125 206.5625 159.835938 206.703125 159.609375 C 206.660156 159.570312 206.605469 159.511719 206.546875 159.449219 C 206.269531 159.242188 206.144531 158.960938 206.167969 158.613281 C 206.152344 158.527344 206.140625 158.441406 206.125 158.355469 C 206.007812 157.632812 205.898438 156.90625 205.824219 156.175781 C 205.667969 154.722656 205.589844 153.261719 205.582031 151.800781 C 205.578125 151.503906 205.671875 151.246094 205.867188 151.027344 C 206.058594 150.804688 206.300781 150.679688 206.59375 150.644531 C 207.113281 149.804688 208.09375 149.117188 209.03125 149.039062 C 209.097656 146.117188 209.269531 143.003906 207.808594 140.402344 Z M 207.808594 140.402344 " fill-opacity="1" fill-rule="nonzero"/><path fill="#10b5b8" d="M 219.582031 139.691406 C 219.523438 139.726562 219.46875 139.761719 219.449219 139.777344 C 219.035156 140.089844 218.648438 140.429688 218.285156 140.792969 C 217.207031 141.859375 216.195312 142.984375 215.25 144.171875 C 214.210938 145.425781 213.277344 146.753906 212.449219 148.160156 C 212.109375 148.726562 211.824219 149.320312 211.585938 149.9375 C 211.484375 150.222656 211.433594 150.515625 211.429688 150.820312 C 211.539062 151.882812 210.351562 152.242188 209.671875 151.789062 C 209.375 151.742188 209.148438 151.585938 208.996094 151.328125 L 208.988281 151.3125 C 208.910156 151.359375 208.839844 151.410156 208.769531 151.464844 C 208.769531 151.464844 208.738281 151.5 208.695312 151.542969 C 208.648438 151.585938 208.582031 151.667969 208.53125 151.734375 C 208.53125 151.742188 208.511719 151.765625 208.488281 151.808594 C 208.34375 152.101562 208.117188 152.285156 207.804688 152.363281 C 207.84375 154.261719 208.011719 156.144531 208.3125 158.015625 C 208.359375 158.0625 208.398438 158.109375 208.4375 158.160156 C 208.484375 158.222656 208.523438 158.285156 208.554688 158.351562 C 209.640625 158.425781 209.542969 157.644531 209.457031 156.726562 C 209.347656 155.59375 209.15625 154.492188 209.230469 153.351562 C 209.328125 151.914062 211.507812 152.359375 211.414062 153.777344 C 211.3125 155.289062 211.957031 156.800781 211.636719 158.316406 C 211.554688 158.765625 211.375 159.171875 211.101562 159.539062 C 211.183594 159.546875 211.265625 159.5625 211.34375 159.589844 C 213.847656 160.375 215.167969 162.648438 216.867188 164.464844 C 217.601562 165.25 218.414062 166.148438 219.269531 166.796875 C 219.726562 167.144531 219.707031 167.058594 219.75 166.492188 C 219.785156 166.007812 219.734375 165.515625 219.726562 165.03125 C 219.710938 164.65625 219.847656 164.351562 220.144531 164.121094 C 220.183594 160.058594 220.320312 156.007812 220.332031 151.949219 C 220.34375 147.910156 220.882812 143.5625 219.582031 139.691406 Z M 219.582031 139.691406 " fill-opacity="1" fill-rule="nonzero"/><path fill="#ff914d" d="M 199.449219 186.316406 C 197.304688 182.660156 195.679688 178.488281 192.808594 175.3125 C 192.597656 175.085938 192.492188 174.8125 192.5 174.5 C 191.808594 174.621094 191.113281 174.679688 190.410156 174.675781 C 190.421875 175.472656 190.453125 176.265625 190.496094 177.058594 C 190.636719 177.042969 190.777344 177.058594 190.914062 177.101562 C 191.050781 177.144531 191.171875 177.210938 191.277344 177.308594 C 191.382812 177.402344 191.46875 177.515625 191.527344 177.644531 C 191.585938 177.773438 191.617188 177.910156 191.617188 178.054688 C 191.675781 179.296875 192.402344 180.40625 192.957031 181.484375 C 193.59375 182.734375 194.03125 184.066406 194.53125 185.375 C 195.605469 188.210938 196.722656 191.019531 198.105469 193.71875 C 198.601562 194.660156 199.023438 195.636719 199.367188 196.644531 C 199.515625 197.097656 199.648438 197.558594 199.820312 198.003906 C 199.914062 198.257812 200.03125 198.503906 200.167969 198.738281 C 200.984375 198.863281 201.910156 198.234375 202.675781 198.015625 C 203.511719 197.804688 204.359375 197.714844 205.214844 197.742188 C 203.191406 193.980469 201.613281 189.996094 199.449219 186.316406 Z M 199.449219 186.316406 " fill-opacity="1" fill-rule="nonzero"/><path fill="#ff914d" d="M 193.082031 169.179688 C 193.015625 169.078125 192.964844 168.96875 192.929688 168.851562 C 191.003906 168.878906 189.089844 168.882812 187.152344 168.882812 C 184.179688 168.882812 181.230469 168.597656 178.28125 168.339844 C 178.339844 168.859375 178.386719 169.378906 178.453125 169.894531 C 178.507812 170.457031 178.617188 171.003906 178.785156 171.542969 C 178.835938 171.730469 178.910156 171.90625 179.007812 172.074219 C 179.085938 172.191406 179.222656 172.277344 179.128906 172.277344 C 180.066406 172.4375 181.039062 172.164062 181.980469 172.140625 C 183.394531 172.105469 184.835938 172.34375 186.257812 172.34375 C 188.203125 172.34375 190.191406 172.601562 192.121094 172.292969 C 192.410156 172.273438 192.6875 172.195312 192.949219 172.0625 C 192.890625 172.089844 193.019531 171.902344 193.035156 171.8125 C 193.082031 171.589844 193.113281 171.359375 193.132812 171.128906 C 193.15625 170.476562 193.140625 169.828125 193.082031 169.179688 Z M 193.082031 169.179688 " fill-opacity="1" fill-rule="nonzero"/><path fill="#000000" d="M 204.628906 125.398438 C 204.355469 122.492188 200.75 121.011719 198.207031 121.503906 C 194.757812 122.179688 193.542969 126.453125 195.84375 128.984375 C 195.875 129.023438 195.910156 129.058594 195.945312 129.089844 C 198.277344 132.292969 205.039062 129.746094 204.628906 125.398438 Z M 202.433594 126.007812 C 202.230469 128.144531 198.015625 129.425781 197.421875 126.96875 C 197.359375 126.621094 197.164062 126.386719 196.832031 126.269531 C 196.765625 125.667969 196.902344 125.117188 197.25 124.621094 C 197.746094 123.898438 198.429688 123.667969 199.269531 123.640625 C 200.535156 123.597656 202.574219 124.460938 202.4375 126.003906 Z M 202.433594 126.007812 " fill-opacity="1" fill-rule="nonzero"/><g clip-path="url(#48c72150f5)"><path fill="#000000" d="M 221.683594 138.953125 C 221.5625 138.539062 221.292969 138.300781 220.875 138.238281 C 220.828125 138.019531 220.722656 137.828125 220.5625 137.667969 C 219.664062 136.75 218.339844 137.78125 217.625 138.394531 C 216.304688 139.558594 215.09375 140.828125 213.984375 142.195312 C 213 143.378906 212.082031 144.613281 211.238281 145.898438 C 211.167969 143.546875 210.847656 141.238281 209.621094 139.101562 C 209.605469 139.078125 209.589844 139.054688 209.574219 139.03125 C 216.140625 133.15625 217.695312 121.507812 211.332031 114.9375 C 208.738281 112.28125 204.863281 110.710938 201.207031 110.46875 C 197.753906 110.246094 194.488281 111.414062 191.835938 113.621094 C 188.703125 116.222656 186.558594 119.847656 185.320312 123.703125 C 184.675781 125.675781 184.453125 127.695312 184.65625 129.765625 C 184.859375 131.832031 185.46875 133.773438 186.484375 135.582031 C 186.996094 137.117188 187.984375 138.382812 189.21875 139.410156 C 185.550781 139.375 181.855469 139.285156 178.199219 139.527344 L 178.214844 139.511719 C 185.253906 133.824219 187.074219 121.695312 180.53125 114.9375 C 177.945312 112.273438 174.070312 110.707031 170.421875 110.46875 C 166.972656 110.246094 163.703125 111.414062 161.050781 113.621094 C 157.910156 116.230469 155.765625 119.855469 154.527344 123.707031 C 153.878906 125.683594 153.65625 127.703125 153.859375 129.769531 C 154.0625 131.839844 154.671875 133.777344 155.691406 135.585938 C 156.136719 136.871094 156.855469 137.976562 157.847656 138.902344 C 157.273438 139.183594 156.753906 139.546875 156.292969 139.992188 C 154.527344 141.761719 154.929688 144.636719 155.5 146.804688 C 155.6875 147.53125 155.84375 148.273438 155.96875 149.023438 C 155.035156 148.863281 153.824219 149.167969 153.027344 149.179688 C 152.183594 149.191406 151.894531 149.96875 152.09375 150.601562 C 152.054688 150.699219 152.03125 150.800781 152.019531 150.902344 C 151.851562 152.246094 152.167969 153.523438 152.207031 154.859375 C 152.222656 155.492188 152.8125 155.898438 153.398438 155.890625 C 153.898438 155.878906 155.574219 155.511719 155.824219 156.011719 C 155.945312 156.277344 156.148438 156.449219 156.429688 156.523438 C 156.394531 157.761719 156.257812 158.996094 156.230469 160.230469 C 156.210938 161.503906 155.96875 162.746094 156.109375 164.019531 C 156.738281 169.707031 163.882812 168.40625 167.738281 168.082031 C 170.515625 167.847656 173.273438 167.960938 176.027344 168.167969 C 176.261719 169.75 176.164062 171.914062 177.039062 173.292969 C 176.449219 174.328125 176.324219 175.980469 176.109375 176.890625 C 175.515625 179.390625 174.457031 181.910156 173.527344 184.304688 C 171.40625 189.773438 168.460938 194.890625 166.453125 200.402344 C 166.15625 201.226562 166.628906 202.015625 167.535156 202.015625 C 170.332031 202.015625 173.171875 201.800781 175.929688 202.402344 C 176.375 202.5 176.96875 202.253906 177.140625 201.804688 C 178.890625 197.085938 180.277344 192.253906 181.675781 187.417969 C 182.304688 185.238281 182.867188 183.078125 183.324219 180.851562 L 183.324219 180.867188 C 183.363281 183.035156 183.324219 185.203125 183.324219 187.371094 C 183.324219 191.816406 183.128906 196.253906 182.734375 200.6875 C 182.667969 201.445312 183.136719 202.011719 183.910156 202.015625 C 185.238281 202.015625 186.5625 202.050781 187.886719 201.953125 C 189.152344 201.855469 190.726562 201.6875 191.183594 200.300781 C 191.300781 200.003906 191.269531 199.726562 191.09375 199.464844 C 191.421875 199.304688 191.585938 199.042969 191.589844 198.675781 C 191.84375 195.125 191.222656 191.5625 191.199219 188.011719 C 191.199219 186.128906 191.054688 184.25 190.898438 182.371094 C 191.539062 183.707031 192.023438 185.089844 192.554688 186.476562 C 193.183594 188.140625 193.839844 189.792969 194.542969 191.429688 C 195.203125 192.960938 196.039062 194.410156 196.6875 195.949219 C 197.398438 197.628906 197.726562 200.632812 199.921875 200.964844 C 201.058594 201.136719 202.183594 200.527344 203.226562 200.171875 C 203.949219 199.925781 204.902344 200.003906 205.652344 199.988281 C 206.367188 199.972656 207.066406 200.113281 207.578125 199.507812 C 207.710938 199.34375 207.789062 199.160156 207.816406 198.949219 C 207.96875 198.679688 208 198.390625 207.910156 198.089844 C 207.832031 197.828125 207.703125 197.59375 207.523438 197.382812 C 205.253906 193.378906 203.570312 189.070312 201.269531 185.078125 C 199.074219 181.261719 197.3125 177.085938 194.363281 173.769531 C 195.605469 172.6875 195.375 170.484375 195.265625 168.808594 C 195.871094 168.789062 196.460938 168.769531 197.0625 168.746094 C 200.007812 168.625 202.984375 168.796875 205.816406 167.816406 C 205.9375 167.777344 206.046875 167.71875 206.148438 167.640625 C 207.398438 166.875 208.460938 165.839844 208.878906 164.386719 C 209.242188 163.128906 209.101562 161.820312 208.855469 160.550781 C 209.289062 160.53125 209.703125 160.4375 210.105469 160.265625 C 210.0625 160.421875 210.050781 160.574219 210.070312 160.734375 C 210.089844 160.890625 210.140625 161.039062 210.214844 161.179688 C 210.292969 161.316406 210.394531 161.4375 210.515625 161.535156 C 210.640625 161.636719 210.777344 161.707031 210.929688 161.753906 C 212.289062 162.183594 213.320312 163.648438 214.1875 164.699219 C 215.09375 165.792969 216.085938 166.75 217.070312 167.761719 C 217.988281 168.710938 219.347656 169.75 220.695312 168.960938 C 221.558594 168.453125 221.851562 167.636719 221.9375 166.75 C 222.226562 166.519531 222.367188 166.222656 222.359375 165.855469 C 222.359375 161.152344 222.539062 156.453125 222.558594 151.753906 C 222.570312 147.519531 223.058594 143.039062 221.683594 138.953125 Z M 154.324219 153.59375 C 154.230469 152.839844 154.109375 152.085938 154.199219 151.335938 L 154.585938 151.292969 C 154.863281 151.265625 155.140625 151.246094 155.421875 151.234375 L 155.546875 151.234375 C 155.753906 151.375 155.980469 151.433594 156.230469 151.410156 L 156.265625 151.410156 C 156.335938 152.1875 156.378906 152.964844 156.40625 153.742188 C 155.773438 153.546875 155.023438 153.546875 154.324219 153.59375 Z M 189.203125 136.097656 C 189.207031 135.855469 189.140625 135.640625 189 135.445312 C 188.828125 135.1875 188.667969 134.929688 188.515625 134.664062 C 188.46875 134.511719 188.394531 134.375 188.289062 134.257812 C 187.070312 132.03125 186.589844 129.65625 186.855469 127.128906 C 187.15625 124.285156 188.347656 121.429688 189.945312 119.070312 C 192.484375 115.316406 196.148438 112.566406 200.808594 112.671875 C 205.339844 112.773438 210.050781 115.535156 211.980469 119.707031 C 213.839844 123.730469 213.371094 128.9375 211.511719 132.875 C 209.304688 137.546875 204.46875 140.785156 199.320312 140.84375 C 197.152344 140.871094 194.917969 140.113281 192.992188 139.164062 C 191.550781 138.457031 190.105469 137.457031 189.203125 136.097656 Z M 157.726562 134.675781 C 157.679688 134.523438 157.605469 134.386719 157.503906 134.269531 C 156.277344 132.039062 155.796875 129.660156 156.0625 127.128906 C 156.363281 124.285156 157.558594 121.441406 159.148438 119.070312 C 161.691406 115.320312 165.351562 112.570312 170.015625 112.675781 C 174.546875 112.773438 179.257812 115.535156 181.183594 119.707031 C 183.046875 123.734375 182.578125 128.9375 180.714844 132.875 C 178.511719 137.550781 173.675781 140.789062 168.527344 140.847656 C 166.359375 140.875 164.121094 140.117188 162.199219 139.167969 C 160.757812 138.457031 159.308594 137.457031 158.410156 136.097656 C 158.414062 135.855469 158.347656 135.640625 158.207031 135.445312 C 158.039062 135.1875 157.878906 134.929688 157.726562 134.664062 Z M 179.8125 185.964844 C 178.234375 190.617188 177.089844 195.394531 175.441406 200.027344 C 173.351562 199.691406 171.210938 199.722656 169.089844 199.753906 C 169.898438 197.742188 170.835938 195.78125 171.777344 193.828125 C 172.960938 191.375 174.027344 188.894531 175.085938 186.386719 C 176.183594 183.785156 177.023438 181.085938 177.964844 178.425781 C 178.207031 177.695312 178.402344 176.949219 178.554688 176.191406 C 178.65625 175.734375 178.757812 175.28125 178.886719 174.832031 C 178.914062 174.734375 178.949219 174.632812 178.984375 174.539062 C 179.894531 174.671875 180.90625 174.480469 181.761719 174.40625 C 182.105469 174.375 182.449219 174.375 182.792969 174.40625 C 181.308594 178.113281 181.089844 182.195312 179.8125 185.964844 Z M 189.257812 199.433594 C 189.199219 199.460938 189.140625 199.484375 189.078125 199.503906 C 188.902344 199.5625 188.71875 199.601562 188.53125 199.625 C 187.90625 199.710938 187.277344 199.761719 186.644531 199.773438 C 186.109375 199.792969 185.578125 199.792969 185.039062 199.789062 C 185.355469 195.851562 185.527344 191.90625 185.550781 187.957031 C 185.566406 185.796875 185.550781 183.636719 185.550781 181.476562 C 185.550781 179.417969 184.960938 177.34375 185.132812 175.296875 C 185.144531 175.140625 185.128906 174.988281 185.082031 174.835938 C 185.101562 174.789062 185.117188 174.738281 185.132812 174.6875 C 185.140625 174.644531 185.15625 174.605469 185.171875 174.5625 C 185.699219 174.5625 186.226562 174.5625 186.753906 174.574219 C 187.226562 174.574219 187.707031 174.589844 188.1875 174.609375 C 188.214844 179.019531 188.929688 183.390625 188.996094 187.800781 C 189.046875 191.257812 189.667969 194.789062 189.417969 198.238281 C 189.390625 198.578125 189.488281 198.871094 189.71875 199.121094 C 189.539062 199.1875 189.386719 199.292969 189.257812 199.433594 Z M 186.265625 172.34375 C 184.851562 172.34375 183.402344 172.109375 181.988281 172.140625 C 181.046875 172.164062 180.074219 172.433594 179.136719 172.273438 C 179.230469 172.273438 179.09375 172.1875 179.015625 172.070312 C 178.917969 171.902344 178.84375 171.726562 178.792969 171.542969 C 178.625 171.003906 178.515625 170.453125 178.460938 169.890625 C 178.394531 169.375 178.347656 168.855469 178.289062 168.339844 C 181.238281 168.597656 184.191406 168.882812 187.160156 168.882812 C 189.085938 168.882812 191.011719 168.882812 192.9375 168.847656 C 192.972656 168.964844 193.023438 169.074219 193.089844 169.175781 C 193.148438 169.824219 193.164062 170.476562 193.140625 171.125 C 193.125 171.355469 193.089844 171.585938 193.042969 171.808594 C 193.027344 171.898438 192.902344 172.085938 192.960938 172.058594 C 192.699219 172.191406 192.421875 172.269531 192.128906 172.289062 C 190.191406 172.601562 188.203125 172.34375 186.265625 172.34375 Z M 199.457031 186.316406 C 201.621094 189.996094 203.199219 193.980469 205.222656 197.734375 C 204.367188 197.707031 203.519531 197.796875 202.683594 198.007812 C 201.917969 198.226562 200.992188 198.851562 200.175781 198.730469 C 200.039062 198.496094 199.921875 198.25 199.828125 197.992188 C 199.65625 197.550781 199.523438 197.089844 199.375 196.636719 C 199.03125 195.628906 198.609375 194.652344 198.113281 193.710938 C 196.730469 191.011719 195.613281 188.203125 194.539062 185.367188 C 194.039062 184.058594 193.601562 182.726562 192.964844 181.476562 C 192.410156 180.398438 191.6875 179.289062 191.628906 178.046875 C 191.625 177.902344 191.59375 177.765625 191.535156 177.636719 C 191.476562 177.507812 191.390625 177.394531 191.285156 177.300781 C 191.179688 177.203125 191.058594 177.136719 190.921875 177.09375 C 190.785156 177.046875 190.648438 177.035156 190.503906 177.050781 C 190.460938 176.257812 190.429688 175.464844 190.417969 174.667969 C 191.121094 174.671875 191.816406 174.613281 192.507812 174.492188 C 192.5 174.804688 192.605469 175.078125 192.816406 175.304688 C 195.679688 178.488281 197.304688 182.660156 199.449219 186.316406 Z M 206.597656 150.648438 C 206.308594 150.679688 206.066406 150.808594 205.871094 151.027344 C 205.679688 151.25 205.582031 151.507812 205.589844 151.800781 C 205.589844 153.265625 205.667969 154.730469 205.816406 156.1875 C 205.894531 156.917969 206 157.640625 206.121094 158.363281 C 206.132812 158.449219 206.144531 158.539062 206.160156 158.625 C 206.136719 158.972656 206.265625 159.25 206.542969 159.460938 C 206.597656 159.519531 206.65625 159.578125 206.699219 159.621094 C 206.554688 159.84375 206.519531 160.085938 206.585938 160.34375 C 206.804688 161.390625 207.019531 162.472656 206.828125 163.539062 C 206.648438 164.554688 205.84375 165.21875 205.011719 165.734375 C 202.179688 166.683594 199.0625 166.4375 196.113281 166.546875 C 192.820312 166.671875 189.488281 166.765625 186.195312 166.648438 C 179.8125 166.421875 173.507812 165.277344 167.109375 165.890625 C 164.886719 166.09375 162.425781 166.703125 160.246094 165.945312 C 157.597656 165.027344 158.273438 161.933594 158.472656 159.71875 C 158.742188 156.695312 158.714844 153.675781 158.386719 150.65625 C 158.226562 149.230469 157.988281 147.820312 157.671875 146.417969 C 157.394531 145.144531 157.066406 143.929688 157.339844 142.621094 C 157.476562 141.960938 157.910156 141.519531 158.386719 141.082031 C 158.503906 140.988281 158.632812 140.910156 158.773438 140.851562 C 158.859375 140.816406 158.949219 140.785156 159.035156 140.757812 C 159.40625 141.382812 160.222656 141.355469 160.707031 140.941406 C 162.207031 141.726562 163.777344 142.308594 165.425781 142.695312 C 166.929688 143.042969 168.449219 143.140625 169.984375 142.992188 C 171.519531 142.847656 172.996094 142.460938 174.40625 141.832031 C 174.640625 142.042969 174.910156 142.121094 175.214844 142.070312 C 180.488281 141.390625 185.875 141.664062 191.1875 141.664062 L 191.347656 141.664062 C 191.6875 141.683594 191.957031 141.554688 192.15625 141.273438 C 193.460938 141.890625 194.816406 142.363281 196.21875 142.695312 C 200.25 143.660156 204.414062 142.695312 207.804688 140.414062 C 209.261719 143.011719 209.089844 146.125 209.015625 149.050781 C 208.097656 149.117188 207.113281 149.808594 206.589844 150.648438 Z M 220.347656 151.929688 C 220.332031 155.992188 220.199219 160.042969 220.15625 164.101562 C 219.863281 164.332031 219.722656 164.632812 219.742188 165.007812 C 219.742188 165.496094 219.800781 165.988281 219.765625 166.472656 C 219.722656 167.039062 219.742188 167.121094 219.285156 166.777344 C 218.429688 166.128906 217.613281 165.230469 216.882812 164.445312 C 215.179688 162.617188 213.859375 160.347656 211.359375 159.566406 C 211.28125 159.542969 211.199219 159.527344 211.117188 159.515625 C 211.390625 159.152344 211.570312 158.746094 211.652344 158.296875 C 211.96875 156.78125 211.324219 155.269531 211.429688 153.757812 C 211.523438 152.335938 209.34375 151.894531 209.246094 153.328125 C 209.167969 154.472656 209.363281 155.574219 209.46875 156.707031 C 209.558594 157.632812 209.65625 158.414062 208.566406 158.332031 C 208.535156 158.265625 208.496094 158.199219 208.453125 158.140625 C 208.414062 158.089844 208.371094 158.039062 208.324219 157.996094 C 208.027344 156.125 207.855469 154.246094 207.816406 152.351562 C 208.128906 152.273438 208.359375 152.085938 208.503906 151.796875 C 208.527344 151.753906 208.539062 151.730469 208.542969 151.71875 C 208.597656 151.65625 208.652344 151.589844 208.707031 151.53125 C 208.765625 151.46875 208.777344 151.460938 208.785156 151.453125 C 208.855469 151.398438 208.925781 151.347656 209 151.300781 L 209.011719 151.316406 C 209.164062 151.574219 209.386719 151.730469 209.683594 151.777344 C 210.367188 152.238281 211.550781 151.871094 211.445312 150.808594 C 211.449219 150.503906 211.5 150.210938 211.597656 149.925781 C 211.835938 149.308594 212.125 148.714844 212.464844 148.144531 C 213.292969 146.742188 214.226562 145.414062 215.265625 144.160156 C 216.210938 142.972656 217.222656 141.847656 218.296875 140.78125 C 218.664062 140.417969 219.050781 140.078125 219.460938 139.765625 C 219.484375 139.75 219.539062 139.714844 219.597656 139.679688 C 220.882812 143.5625 220.34375 147.910156 220.332031 151.917969 Z M 220.347656 151.929688 " fill-opacity="1" fill-rule="nonzero"/></g><path fill="#000000" d="M 173.835938 125.398438 C 173.5625 122.492188 169.953125 121.011719 167.414062 121.503906 C 163.960938 122.179688 162.75 126.453125 165.046875 128.984375 C 165.082031 129.023438 165.117188 129.054688 165.152344 129.089844 C 167.484375 132.292969 174.246094 129.746094 173.835938 125.398438 Z M 171.636719 126.007812 C 171.433594 128.144531 167.222656 129.425781 166.628906 126.96875 C 166.566406 126.621094 166.371094 126.386719 166.039062 126.269531 C 165.96875 125.667969 166.109375 125.117188 166.457031 124.621094 C 166.949219 123.898438 167.632812 123.667969 168.476562 123.640625 C 169.742188 123.597656 171.78125 124.460938 171.636719 126.003906 Z M 171.636719 126.007812 " fill-opacity="1" fill-rule="nonzero"/><g fill="#ffffff" fill-opacity="1"><g transform="translate(106.105696, 237.906196)"><g><path d="M 13.5625 -20.796875 C 11.28125 -20.433594 9.03125 -20.105469 6.75 -19.714844 C 4.589844 -19.355469 3.722656 -18.304688 3.480469 -16.144531 C 2.910156 -11.132812 2.3125 -6.152344 1.53125 -1.171875 C 1.082031 1.679688 5.402344 2.878906 5.851562 0.03125 C 6.210938 -2.3125 6.570312 -4.679688 6.871094 -7.050781 C 8.613281 -7.410156 10.324219 -7.621094 12.09375 -7.652344 C 14.972656 -7.683594 14.972656 -12.183594 12.09375 -12.152344 C 10.53125 -12.121094 9.003906 -11.972656 7.472656 -11.734375 C 7.5 -11.882812 7.5 -12.03125 7.53125 -12.152344 C 7.621094 -13.082031 7.921875 -14.132812 7.863281 -15.0625 C 7.863281 -15.183594 7.863281 -15.273438 7.890625 -15.363281 C 8.222656 -15.425781 8.582031 -15.484375 8.640625 -15.484375 C 10.683594 -15.8125 12.722656 -16.144531 14.765625 -16.472656 C 17.613281 -16.925781 16.382812 -21.246094 13.5625 -20.796875 Z M 13.5625 -20.796875 "/></g></g></g><g fill="#ffffff" fill-opacity="1"><g transform="translate(123.985681, 237.906196)"><g><path d="M 2.851562 -18.453125 C 2.25 -13.054688 1.800781 -7.621094 1.5 -2.160156 C 1.320312 0.71875 5.820312 0.71875 6 -2.160156 C 6.300781 -7.621094 6.75 -13.054688 7.351562 -18.453125 C 7.652344 -21.335938 3.152344 -21.304688 2.851562 -18.453125 Z M 2.851562 -18.453125 "/></g></g></g><g fill="#ffffff" fill-opacity="1"><g transform="translate(132.865678, 237.906196)"><g><path d="M 13.203125 -9.691406 C 10.863281 -9.511719 8.550781 -9.183594 6.273438 -8.671875 C 6.660156 -12.394531 7.023438 -16.085938 7.382812 -19.773438 C 7.652344 -22.65625 3.152344 -22.625 2.878906 -19.773438 C 2.429688 -15.09375 1.949219 -10.414062 1.5 -5.730469 C 1.351562 -4.261719 3.0625 -3.179688 4.351562 -3.570312 C 7.261719 -4.410156 10.203125 -4.953125 13.203125 -5.191406 C 16.085938 -5.402344 16.113281 -9.902344 13.203125 -9.691406 Z M 13.203125 -9.691406 "/></g></g></g><g fill="#ffffff" fill-opacity="1"><g transform="translate(149.755657, 237.906196)"><g><path d="M 22.386719 -10.652344 C 22.355469 -13.261719 22.027344 -16.472656 19.925781 -18.304688 C 17.613281 -20.34375 15.363281 -19.265625 13.625 -17.195312 C 13.5625 -17.285156 13.472656 -17.40625 13.414062 -17.523438 C 11.792969 -20.015625 8.371094 -19.835938 6.390625 -17.914062 C 4.261719 -15.8125 3.179688 -12.394531 2.550781 -9.574219 C 1.890625 -6.480469 1.679688 -3.300781 1.5 -0.148438 C 1.320312 2.730469 5.820312 2.730469 6 -0.148438 C 6.210938 -3.929688 6.453125 -7.773438 7.742188 -11.371094 C 8.042969 -12.152344 8.371094 -12.933594 8.820312 -13.683594 C 8.972656 -13.921875 9.363281 -14.734375 9.722656 -14.824219 C 9.722656 -14.824219 9.753906 -14.824219 9.753906 -14.855469 C 9.753906 -14.792969 9.753906 -14.765625 9.8125 -14.703125 C 10.171875 -14.222656 10.050781 -12.8125 10.082031 -12.242188 C 10.113281 -11.164062 10.050781 -10.050781 9.933594 -8.972656 C 9.691406 -6.480469 13.953125 -5.882812 14.375 -8.371094 C 14.613281 -9.992188 15.125 -11.492188 15.992188 -12.875 C 16.292969 -13.292969 16.953125 -13.832031 17.34375 -14.34375 C 17.40625 -13.863281 17.644531 -13.382812 17.703125 -12.902344 C 18.425781 -8.941406 17.644531 -4.53125 17.253906 -0.539062 C 16.953125 2.339844 21.457031 2.3125 21.753906 -0.539062 C 22.085938 -3.902344 22.445312 -7.292969 22.386719 -10.652344 Z M 22.386719 -10.652344 "/></g></g></g><g fill="#ffffff" fill-opacity="1"><g transform="translate(173.665636, 237.906196)"><g><path d="M 22.144531 -16.414062 C 21.816406 -19.265625 17.3125 -19.292969 17.675781 -16.414062 C 18.066406 -13.082031 17.914062 -9.78125 16.984375 -6.542969 C 16.683594 -5.582031 16.234375 -3.449219 15.0625 -3.152344 C 13.59375 -2.761719 13.5625 -5.492188 13.503906 -6.390625 C 13.292969 -9.242188 8.851562 -9.300781 9.03125 -6.390625 C 9.0625 -5.671875 8.792969 -3.480469 7.59375 -3.902344 C 6.660156 -4.230469 6.453125 -6.691406 6.300781 -7.472656 C 5.792969 -10.5625 5.882812 -13.714844 6.453125 -16.773438 C 6.960938 -19.59375 2.640625 -20.824219 2.101562 -17.972656 C 1.558594 -15.003906 1.320312 -12.003906 1.621094 -8.972656 C 1.859375 -6.421875 2.160156 -3.359375 3.839844 -1.289062 C 5.972656 1.289062 8.730469 1.082031 10.773438 -0.480469 C 11.074219 -0.121094 11.433594 0.210938 11.851562 0.511719 C 14.011719 2.011719 16.804688 1.558594 18.664062 -0.238281 C 20.554688 -2.039062 21.304688 -4.890625 21.785156 -7.351562 C 22.386719 -10.351562 22.535156 -13.382812 22.144531 -16.414062 Z M 22.144531 -16.414062 "/></g></g></g><g fill="#ffffff" fill-opacity="1"><g transform="translate(197.545609, 237.906196)"><g><path d="M 16.683594 -18.304688 C 14.222656 -22.355469 7.800781 -22.867188 4.589844 -19.59375 C 1.441406 -16.894531 0.992188 -10.621094 1.890625 -7.113281 C 2.519531 -4.710938 4.109375 -2.191406 6.570312 -1.410156 C 9.121094 -0.570312 11.941406 -1.5 13.953125 -3.152344 C 15.992188 -4.859375 17.253906 -7.351562 17.675781 -9.960938 C 18.066406 -12.542969 18.09375 -15.992188 16.683594 -18.304688 Z M 11.222656 -6.632812 C 11.132812 -6.570312 11.074219 -6.511719 10.984375 -6.421875 C 10.023438 -5.613281 8.492188 -5.28125 7.472656 -6.0625 C 6.8125 -6.542969 6.511719 -7.351562 6.300781 -8.132812 C 6 -9.421875 5.941406 -10.773438 6.089844 -12.09375 C 6.242188 -13.292969 6.542969 -14.824219 7.230469 -15.8125 C 7.863281 -16.683594 8.914062 -17.222656 9.992188 -17.253906 C 11.851562 -17.285156 13.054688 -16.023438 13.261719 -14.285156 C 13.625 -11.644531 13.234375 -8.550781 11.222656 -6.632812 Z M 11.222656 -6.632812 "/></g></g></g><g fill="#ffffff" fill-opacity="1"><g transform="translate(216.955588, 237.906196)"><g><path d="M 17.042969 -2.789062 C 15.394531 -5.070312 13.503906 -7.082031 11.34375 -8.820312 C 12.964844 -9.960938 14.3125 -11.523438 14.882812 -13.234375 C 16.023438 -16.683594 12.964844 -20.015625 9.480469 -19.863281 C 5.792969 -19.714844 3.359375 -16.292969 2.699219 -12.964844 C 1.832031 -8.640625 1.832031 -4.019531 1.5 0.359375 C 1.261719 3.242188 5.761719 3.210938 6 0.359375 C 6.179688 -2.039062 6.363281 -4.410156 6.570312 -6.78125 C 9.121094 -5.101562 11.34375 -3 13.171875 -0.511719 C 14.855469 1.800781 18.785156 -0.449219 17.042969 -2.789062 Z M 9.03125 -12.8125 C 8.402344 -12.242188 7.800781 -11.824219 7.023438 -11.703125 C 7.113281 -12.214844 7.230469 -12.722656 7.441406 -13.203125 C 7.652344 -13.804688 10.203125 -16.863281 10.621094 -14.824219 C 10.742188 -14.3125 9.390625 -13.113281 9.03125 -12.8125 Z M 9.03125 -12.8125 "/></g></g></g><g fill="#ffffff" fill-opacity="1"><g transform="translate(235.94557, 237.906196)"><g><path d="M 14.972656 -18.90625 C 16.445312 -21.394531 12.542969 -23.675781 11.101562 -21.183594 C 10.140625 -19.535156 8.792969 -16.984375 7.023438 -15.964844 C 7.113281 -17.882812 7.171875 -19.835938 7.171875 -21.785156 C 7.203125 -24.695312 2.699219 -24.695312 2.671875 -21.785156 C 2.640625 -16.054688 2.28125 -10.324219 1.53125 -4.652344 C 1.351562 -3.421875 1.800781 -2.25 3.089844 -1.859375 C 4.140625 -1.558594 5.703125 -2.25 5.851562 -3.449219 C 6.210938 -5.941406 6.480469 -8.460938 6.691406 -10.984375 C 8.253906 -9.542969 9.242188 -7.53125 9.421875 -5.429688 C 9.691406 -2.550781 14.195312 -2.519531 13.921875 -5.429688 C 13.652344 -8.433594 12.542969 -11.074219 10.683594 -13.234375 C 12.453125 -14.792969 13.804688 -16.894531 14.972656 -18.90625 Z M 14.972656 -18.90625 "/></g></g></g><g fill="#ffffff" fill-opacity="1"><g transform="translate(252.745553, 237.906196)"><g><path d="M 11.164062 -12.964844 C 10.382812 -13.472656 8.582031 -13.953125 8.222656 -14.914062 C 7.683594 -16.382812 9.691406 -17.433594 10.710938 -17.882812 C 13.324219 -19.113281 11.042969 -23.015625 8.433594 -21.785156 C 4.410156 -19.894531 1.621094 -14.523438 5.640625 -11.074219 C 7.050781 -9.8125 9.84375 -9.332031 10.140625 -7.140625 C 10.261719 -6.179688 9.8125 -5.339844 8.972656 -4.980469 C 8.402344 -4.710938 6.300781 -4.382812 5.820312 -5.042969 C 4.082031 -7.320312 0.179688 -5.101562 1.921875 -2.789062 C 5.460938 1.890625 13.921875 -0.0585938 14.582031 -6.089844 C 14.882812 -8.820312 13.441406 -11.433594 11.164062 -12.964844 Z M 11.164062 -12.964844 "/></g></g></g><g fill="#10b5b8" fill-opacity="1"><g transform="translate(161.600366, 262.816142)"><g><path d="M 3.34375 -5.84375 C 3.75 -5.84375 4.144531 -5.765625 4.53125 -5.609375 C 4.925781 -5.453125 5.265625 -5.234375 5.546875 -4.953125 L 4.984375 -4.234375 C 4.765625 -4.460938 4.507812 -4.640625 4.21875 -4.765625 C 3.9375 -4.898438 3.648438 -4.96875 3.359375 -4.96875 C 2.773438 -4.96875 2.28125 -4.769531 1.875 -4.375 C 1.476562 -3.976562 1.28125 -3.492188 1.28125 -2.921875 C 1.28125 -2.347656 1.476562 -1.863281 1.875 -1.46875 C 2.28125 -1.070312 2.773438 -0.875 3.359375 -0.875 C 3.960938 -0.875 4.503906 -1.101562 4.984375 -1.5625 L 5.5625 -0.921875 C 5.257812 -0.617188 4.910156 -0.378906 4.515625 -0.203125 C 4.117188 -0.0351562 3.71875 0.046875 3.3125 0.046875 C 2.457031 0.046875 1.738281 -0.234375 1.15625 -0.796875 C 0.570312 -1.367188 0.28125 -2.078125 0.28125 -2.921875 C 0.28125 -3.742188 0.570312 -4.4375 1.15625 -5 C 1.75 -5.5625 2.476562 -5.84375 3.34375 -5.84375 Z M 3.34375 -5.84375 "/></g></g></g><g fill="#10b5b8" fill-opacity="1"><g transform="translate(169.470908, 262.816142)"><g><path d="M 1.75 0 L 0.765625 0 L 0.765625 -5.8125 L 1.75 -5.8125 Z M 1.75 0 "/></g></g></g><g fill="#10b5b8" fill-opacity="1"><g transform="translate(174.058587, 262.816142)"><g><path d="M 5.8125 0 L 4.84375 0 L 1.75 -4.171875 L 1.75 0 L 0.765625 0 L 0.765625 -5.8125 L 1.734375 -5.8125 L 4.84375 -1.640625 L 4.84375 -5.8125 L 5.8125 -5.8125 Z M 5.8125 0 "/></g></g></g><g fill="#10b5b8" fill-opacity="1"><g transform="translate(182.718683, 262.816142)"><g><path d="M 4.921875 -4.9375 L 1.75 -4.9375 L 1.75 -3.359375 L 4.59375 -3.359375 L 4.59375 -2.484375 L 1.75 -2.484375 L 1.75 -0.875 L 5.015625 -0.875 L 5.015625 0 L 0.765625 0 L 0.765625 -5.8125 L 4.921875 -5.8125 Z M 4.921875 -4.9375 "/></g></g></g><g fill="#10b5b8" fill-opacity="1"><g transform="translate(190.248471, 262.816142)"><g><path d="M 6.921875 0 L 6.015625 0 L 6 -4.34375 L 4.171875 -0.609375 L 3.53125 -0.609375 L 1.6875 -4.34375 L 1.6875 0 L 0.765625 0 L 0.765625 -5.8125 L 1.921875 -5.8125 L 3.84375 -1.953125 L 5.765625 -5.8125 L 6.921875 -5.8125 Z M 6.921875 0 "/></g></g></g><g fill="#10b5b8" fill-opacity="1"><g transform="translate(200.013934, 262.816142)"><g><path d="M 4.515625 -1.3125 L 1.59375 -1.3125 L 1.03125 0 L 0.015625 0 L 2.578125 -5.8125 L 3.578125 -5.8125 L 6.125 0 L 5.078125 0 Z M 4.140625 -2.1875 L 3.046875 -4.765625 L 1.953125 -2.1875 Z M 4.140625 -2.1875 "/></g></g></g><g fill="#10b5b8" fill-opacity="1"><g transform="translate(208.225229, 262.816142)"><g><path d="M 2.671875 -5.859375 C 3.429688 -5.859375 4.113281 -5.660156 4.71875 -5.265625 L 4.3125 -4.390625 C 3.71875 -4.753906 3.148438 -4.9375 2.609375 -4.9375 C 2.304688 -4.9375 2.070312 -4.882812 1.90625 -4.78125 C 1.738281 -4.675781 1.65625 -4.523438 1.65625 -4.328125 C 1.65625 -4.140625 1.734375 -3.972656 1.890625 -3.828125 C 2.046875 -3.691406 2.238281 -3.59375 2.46875 -3.53125 C 2.695312 -3.46875 2.945312 -3.390625 3.21875 -3.296875 C 3.488281 -3.203125 3.738281 -3.097656 3.96875 -2.984375 C 4.207031 -2.878906 4.398438 -2.710938 4.546875 -2.484375 C 4.703125 -2.253906 4.78125 -1.972656 4.78125 -1.640625 C 4.78125 -1.128906 4.578125 -0.722656 4.171875 -0.421875 C 3.765625 -0.117188 3.238281 0.03125 2.59375 0.03125 C 2.144531 0.03125 1.710938 -0.0507812 1.296875 -0.21875 C 0.890625 -0.382812 0.53125 -0.609375 0.21875 -0.890625 L 0.640625 -1.734375 C 0.929688 -1.460938 1.253906 -1.253906 1.609375 -1.109375 C 1.960938 -0.960938 2.296875 -0.890625 2.609375 -0.890625 C 2.953125 -0.890625 3.21875 -0.953125 3.40625 -1.078125 C 3.601562 -1.203125 3.703125 -1.375 3.703125 -1.59375 C 3.703125 -1.789062 3.625 -1.957031 3.46875 -2.09375 C 3.3125 -2.226562 3.113281 -2.328125 2.875 -2.390625 C 2.644531 -2.460938 2.394531 -2.539062 2.125 -2.625 C 1.851562 -2.71875 1.597656 -2.816406 1.359375 -2.921875 C 1.128906 -3.023438 0.9375 -3.1875 0.78125 -3.40625 C 0.632812 -3.632812 0.5625 -3.910156 0.5625 -4.234375 C 0.5625 -4.734375 0.753906 -5.128906 1.140625 -5.421875 C 1.523438 -5.710938 2.035156 -5.859375 2.671875 -5.859375 Z M 2.671875 -5.859375 "/></g></g></g><g fill="#10b5b8" fill-opacity="1"><g transform="translate(188.53531, 273.897452)"><g/></g></g></svg>